<?xml version="1.0" standalone="no"?>
<!DOCTYPE svg PUBLIC "-//W3C//DTD SVG 20010904//EN"
 "http://www.w3.org/TR/2001/REC-SVG-20010904/DTD/svg10.dtd">
<svg version="1.0" xmlns="http://www.w3.org/2000/svg"
 width="16.000000pt" height="16.000000pt" viewBox="0 0 16.000000 16.000000"
 preserveAspectRatio="xMidYMid meet">
<metadata>
Created by potrace 1.11, written by Peter Selinger 2001-2013
</metadata>
<g transform="translate(0.000000,16.000000) scale(0.006250,-0.006250)"
fill="#000000" stroke="none">
<path d="M1682 2526 c0 -19 -3 -39 -7 -45 -3 -6 2 -11 12 -12 10 0 13 -3 6 -6
-10 -3 -9 -8 2 -20 8 -8 15 -18 15 -22 0 -10 -234 -21 -437 -21 l-153 0 0 -31
0 -31 43 9 c64 12 255 5 286 -12 25 -14 25 -14 -23 -15 -113 -1 -172 -45 -240
-183 -38 -77 -43 -106 -85 -427 -19 -146 -54 -313 -71 -335 -4 -5 -20 -46 -35
-90 -16 -44 -32 -82 -36 -85 -4 -3 -9 -16 -12 -30 -3 -19 -5 -17 -6 11 0 19 6
77 15 128 9 51 14 95 11 97 -2 2 -11 -17 -20 -43 l-17 -48 3 51 c1 31 -3 57
-11 67 -11 13 -9 24 12 70 14 30 26 62 26 72 0 9 6 43 14 74 18 71 30 201 18
182 -8 -11 -10 -11 -14 0 -5 13 -13 -11 -39 -111 -11 -40 -13 -42 -18 -20 -5
17 -16 -19 -40 -125 -19 -83 -39 -154 -44 -160 -6 -6 -7 58 -3 178 4 103 5
187 3 187 -2 0 -13 -51 -23 -112 -15 -92 -20 -106 -24 -78 -6 34 -6 33 -19
-25 -7 -33 -15 -64 -17 -70 -5 -12 5 135 13 193 3 25 1 42 -5 42 -5 0 -13 -32
-16 -72 -5 -49 -10 -67 -17 -57 -6 10 -9 6 -11 -16 -1 -16 -4 -3 -7 30 l-6 60
-17 -80 -16 -80 -1 83 c-1 53 -5 81 -11 77 -5 -3 -10 -15 -10 -26 0 -11 -4
-18 -8 -15 -5 3 -15 -20 -21 -52 -7 -31 -19 -69 -28 -85 -16 -30 -34 -114 -35
-165 -1 -18 -5 -29 -9 -25 -10 10 6 212 27 334 18 112 18 133 -1 125 -8 -3
-15 -1 -15 4 0 6 7 10 15 10 8 0 19 8 24 19 9 17 5 19 -38 25 -26 3 -61 4 -77
1 -16 -4 -47 1 -69 9 l-40 15 88 0 c63 1 87 -2 87 -11 0 -10 2 -10 8 -1 4 6
20 13 36 16 24 3 32 12 48 52 53 134 191 306 286 354 47 24 48 26 43 92 l-3
52 -207 -6 c-113 -4 -331 -7 -483 -7 l-278 0 0 -155 0 -155 54 0 c30 0 57 -4
61 -9 6 -11 -15 -61 -27 -61 -4 0 -8 -5 -8 -10 0 -11 -2 -14 -50 -71 l-30 -37
0 -946 0 -946 1280 0 1280 0 0 990 c0 653 -3 990 -10 990 -5 0 -10 23 -10 50
0 28 5 50 10 50 6 0 10 87 10 240 l0 240 -439 0 -439 0 0 -34z m-31 -346 c28
-16 24 -33 -7 -26 -16 4 -23 3 -20 -3 4 -5 -3 -12 -13 -16 -21 -6 -36 -38 -26
-54 3 -5 -6 -18 -21 -28 -14 -10 -41 -33 -59 -51 -24 -23 -46 -34 -79 -38 -39
-6 -44 -9 -34 -21 10 -13 7 -14 -21 -10 -18 3 -40 12 -49 20 -12 11 -31 14
-62 11 -54 -6 -68 2 -76 43 -5 26 0 37 30 71 60 66 110 84 246 85 89 2 121 -1
134 -12 16 -13 17 -13 14 5 -1 10 -7 22 -13 26 -15 12 34 9 56 -2z m374 -71
c-11 -17 -35 -9 -35 11 0 18 3 19 20 10 11 -6 18 -15 15 -21z m91 -29 c35 0
64 -3 63 -7 0 -5 -32 -35 -71 -68 -39 -33 -78 -67 -87 -75 -9 -8 -35 -29 -57
-47 l-41 -32 -20 22 c-11 12 -35 47 -53 77 -18 30 -46 71 -61 91 l-29 37 127
1 c70 1 129 4 132 7 3 2 11 2 19 -1 7 -3 43 -5 78 -5z m-1756 -41 c0 -23 -4
-30 -17 -28 -32 3 -43 -1 -43 -15 0 -9 10 -13 30 -12 17 1 30 1 30 0 0 -1 3
-9 6 -18 5 -13 -1 -16 -34 -16 -44 0 -52 12 -52 83 0 37 0 37 40 37 38 0 40
-2 40 -31z m1040 -143 c0 -8 -7 -17 -15 -20 -13 -4 -14 -10 -5 -26 9 -16 8
-20 -5 -20 -18 0 -19 -12 -3 -28 6 -6 8 -15 4 -19 -4 -4 -10 -3 -14 3 -4 6
-15 14 -25 17 -15 6 -17 13 -12 39 8 38 23 60 35 53 5 -3 11 -1 15 5 9 15 25
12 25 -4z m-113 -38 c-3 -8 -6 -5 -6 6 -1 11 2 17 5 13 3 -3 4 -12 1 -19z
m-310 -100 c-2 -13 -4 -5 -4 17 -1 22 1 32 4 23 2 -10 2 -28 0 -40z m-444 15
c-7 -2 -21 -2 -30 0 -10 3 -4 5 12 5 17 0 24 -2 18 -5z m787 -68 c-14 -17 -40
-20 -40 -6 0 8 18 16 44 20 5 0 3 -6 -4 -14z m-77 -22 c-7 -2 -21 -2 -30 0
-10 3 -4 5 12 5 17 0 24 -2 18 -5z m288 -120 c22 -27 45 -82 58 -138 6 -27 19
-64 28 -82 20 -39 15 -45 -34 -47 l-38 -1 0 45 c-1 29 -11 64 -28 97 -26 51
-33 95 -21 127 8 21 17 20 35 -1z m-744 -35 c-3 -8 -6 -5 -6 6 -1 11 2 17 5
13 3 -3 4 -12 1 -19z m613 -128 c0 -5 -4 -10 -10 -10 -5 0 -10 5 -10 10 0 6 5
10 10 10 6 0 10 -4 10 -10z m-44 -66 c-30 -22 -39 -17 -19 10 12 16 21 21 28
15 7 -7 3 -15 -9 -25z m-808 -63 c-9 -15 -9 -26 0 -45 6 -13 10 -51 8 -83 -2
-36 0 -50 5 -38 4 11 8 14 8 8 2 -23 21 -14 22 10 1 18 3 16 9 -8 19 -70 30
-127 30 -150 0 -13 5 -35 11 -48 7 -15 8 -39 2 -67 l-8 -43 -14 29 c-24 53
-29 59 -40 57 -6 -2 -11 6 -11 16 0 11 -4 23 -10 26 -5 3 -11 30 -11 58 l-1
52 -13 -61 c-16 -81 -22 -95 -38 -88 -10 3 -16 -4 -20 -23 -16 -71 -48 -68
-42 5 2 26 1 41 -1 35 -11 -27 -26 -12 -21 20 7 40 40 153 54 187 49 115 63
149 63 159 0 6 7 11 15 11 12 0 13 -3 3 -19z m777 9 c3 -5 1 -10 -4 -10 -6 0
-11 5 -11 10 0 6 2 10 4 10 3 0 8 -4 11 -10z m-668 -52 c-2 -13 -4 -5 -4 17
-1 22 1 32 4 23 2 -10 2 -28 0 -40z m-100 20 c-3 -8 -6 -5 -6 6 -1 11 2 17 5
13 3 -3 4 -12 1 -19z m119 -115 c8 -53 24 -56 25 -5 1 34 2 31 19 -28 24 -87
67 -276 74 -323 4 -33 3 -37 -9 -27 -8 7 -15 20 -15 30 0 10 -7 20 -15 24 -17
6 -20 -19 -6 -57 5 -14 12 -71 15 -128 5 -113 11 -139 32 -139 8 0 14 -7 14
-15 0 -8 -4 -15 -9 -15 -5 0 -13 -10 -17 -22 -9 -28 -53 -88 -65 -88 -8 0 -81
-31 -114 -49 -5 -2 -4 3 4 12 12 15 12 19 -5 32 -19 13 -19 14 1 21 27 9 85
53 85 63 0 5 -12 6 -26 3 -23 -4 -25 -2 -19 17 7 23 -4 28 -23 9 -7 -7 -12 -8
-12 -2 0 6 9 19 19 28 37 33 55 166 41 301 -15 145 -22 432 -10 415 5 -8 12
-34 16 -57z m90 -58 c9 -33 23 -71 32 -85 32 -49 109 -301 97 -320 -3 -5 -1
-11 5 -15 5 -3 10 -24 10 -47 0 -40 -28 -177 -39 -190 -3 -4 -7 37 -8 90 -2
52 -7 98 -12 101 -4 3 -14 38 -21 76 -13 71 -22 118 -65 330 -14 66 -24 131
-23 145 l1 25 4 -25 c2 -14 11 -52 19 -85z m135 -187 c13 -49 27 -88 32 -88 5
0 6 8 2 18 -3 9 -8 31 -11 47 -3 17 5 3 16 -30 11 -33 18 -73 15 -88 -2 -15
-1 -26 4 -23 5 3 14 -16 21 -42 7 -26 16 -58 21 -72 8 -21 8 -19 5 13 -3 22
-1 35 5 32 5 -4 9 5 9 19 0 14 -4 26 -9 26 -7 0 -51 132 -51 155 0 19 18 -10
30 -50 7 -22 16 -44 20 -50 7 -10 20 -58 40 -155 6 -30 10 -77 8 -105 l-4 -50
-8 43 c-8 37 -10 40 -21 25 -11 -15 -13 -13 -20 15 -9 42 -25 51 -26 15 -1
-15 -9 8 -18 52 -10 44 -32 130 -48 190 -17 61 -34 124 -37 140 -4 17 -9 39
-13 50 -3 13 -2 16 4 10 5 -5 20 -49 34 -97z m94 49 c11 -11 68 -123 70 -137
1 -3 9 -20 18 -37 10 -18 15 -33 11 -33 -3 0 8 -17 24 -37 31 -40 72 -109 72
-121 0 -4 -7 1 -15 12 -8 10 -27 32 -42 50 -32 35 -111 152 -140 208 -11 21
-22 36 -24 34 -2 -3 -5 13 -7 35 -3 40 9 50 33 26z m756 -319 c11 -11 18 -22
16 -24 -1 -2 -25 -4 -52 -5 -48 -1 -155 -44 -155 -62 0 -9 51 2 65 14 13 12
39 11 70 -3 17 -8 25 -19 25 -37 0 -23 -8 -29 -63 -47 -34 -12 -86 -31 -115
-42 -52 -20 -80 -25 -136 -23 -29 1 -30 7 -11 54 5 13 2 17 -14 17 -29 0 -27
30 4 66 14 16 25 32 25 37 0 4 9 7 20 7 13 0 20 -7 20 -19 0 -11 4 -22 9 -25
5 -3 7 -15 4 -26 -5 -18 -3 -19 25 -9 28 10 31 14 29 50 -2 51 19 71 91 85 91
19 122 17 143 -8z m-323 -15 c-15 -14 -18 -14 -32 0 -15 14 -14 16 11 19 36 4
40 1 21 -19z m62 13 c0 -2 -7 -9 -15 -16 -12 -10 -15 -10 -15 4 0 9 7 16 15
16 8 0 15 -2 15 -4z m170 -256 c0 -5 -4 -10 -10 -10 -5 0 -10 5 -10 10 0 6 5
10 10 10 6 0 10 -4 10 -10z"/>
<path d="M731 640 c-1 -8 -4 -26 -7 -40 -5 -19 -4 -22 5 -14 7 6 11 24 8 40
-2 16 -5 22 -6 14z"/>
<path d="M691 551 c-6 -11 -11 -22 -11 -25 0 -11 29 6 34 19 8 23 -12 28 -23
6z"/>
<path d="M941 764 c0 -11 3 -14 6 -6 3 7 2 16 -1 19 -3 4 -6 -2 -5 -13z"/>
<path d="M1175 2328 c-44 -16 -103 -66 -121 -102 -11 -24 -12 -27 -1 -13 27
33 26 17 -3 -45 -31 -66 -74 -222 -67 -241 3 -7 8 6 12 28 11 54 34 107 35 80
0 -11 12 11 26 50 45 126 95 193 179 238 l30 16 -30 0 c-16 0 -43 -5 -60 -11z"/>
<path d="M1016 1995 c-3 -9 -6 -26 -5 -38 1 -14 4 -9 9 13 9 37 7 52 -4 25z"/>
<path d="M921 1744 c0 -11 3 -14 6 -6 3 7 2 16 -1 19 -3 4 -6 -2 -5 -13z"/>
<path d="M926 1453 c-6 -14 -5 -15 5 -6 7 7 10 15 7 18 -3 3 -9 -2 -12 -12z"/>
</g>
</svg>
