<?xml version="1.0" encoding="utf-8"?>
<!-- Generator: Adobe Illustrator 19.2.1, SVG Export Plug-In . SVG Version: 6.00 Build 0)  -->
<svg version="1.1" xmlns="http://www.w3.org/2000/svg" xmlns:xlink="http://www.w3.org/1999/xlink" x="0px" y="0px"
	 viewBox="0 0 395.7 241.8" style="enable-background:new 0 0 395.7 241.8;" xml:space="preserve">
<style type="text/css">
	.st0{fill:#F9A040;}
	.st1{fill:#F7902B;}
	.st2{fill:#4C3217;}
	.st3{fill:#F18121;}
</style>
<g id="Layer_1">
	<path class="st0" d="M155,59.9c-9.4,0-18.5,1.2-27.1,3.3c-8.6-2.2-17.7-3.3-27.1-3.3C45.1,59.9,0,100.6,0,150.8
		c0,50.2,45.1,90.9,100.8,90.9c9.4,0,18.5-1.2,27.1-3.3c8.6,2.2,17.7,3.3,27.1,3.3c55.6,0,100.8-40.7,100.8-90.9
		C255.8,100.6,210.7,59.9,155,59.9z"/>
	<path class="st1" d="M66.6,77.8c0,0-62,39-23.1,136.7C43.5,214.5-35.5,127.2,66.6,77.8z"/>
	<path class="st1" d="M94.5,91.7c0,0-50.4,33.7-18.7,118.2C75.7,209.9,11.6,134.5,94.5,91.7z"/>
	<path class="st2" d="M104.9,72.3l13.7,2.7l13-1.3l7.3-1.3l4-3.7c0,0-12.3-16.3-15.3-18.7c0,0-8-30-45-50l-4.3,2l-2-2v4l-3,4.7
		l4.7,2.7c-2.8-1.6-3,0.7-3,0.7l6.3,3.7C81.3,15.7,127.2,43.5,104.9,72.3z"/>
	<path class="st1" d="M189.4,75c0,0,62,39,23.1,136.7C212.4,211.7,291.5,124.4,189.4,75z"/>
	<path class="st1" d="M161.4,88.9c0,0,50.4,33.7,18.7,118.2C180.2,207.1,244.4,131.6,161.4,88.9z"/>
</g>
<g id="Layer_2">
	<path class="st1" d="M121.8,92c0,0-12.8,56.5-5.9,117.7C115.9,209.7,90.4,160.4,121.8,92z"/>
	<path class="st1" d="M306.1,80.1c-8.4,0-16.5,1-24.1,3c-7.7-1.9-15.8-3-24.1-3c-49.5,0-89.6,36.2-89.6,80.9
		c0,44.7,40.1,80.9,89.6,80.9c8.4,0,16.5-1,24.1-3c7.7,1.9,15.8,3,24.1,3c49.5,0,89.6-36.2,89.6-80.9
		C395.7,116.3,355.6,80.1,306.1,80.1z"/>
	<path class="st3" d="M227.4,96c0,0-55.1,34.6-20.5,121.5C206.9,217.5,136.7,139.9,227.4,96z"/>
	<path class="st3" d="M252.3,108.4c0,0-44.8,30-16.6,105.1C235.6,213.4,178.6,146.4,252.3,108.4z"/>
	<path class="st2" d="M261.5,91.1l12.2,2.4l11.6-1.2l6.5-1.2l3.6-3.3c0,0-11-14.5-13.6-16.6c0,0-7.1-26.7-40-44.5l-3.9,1.8l-1.8-1.8
		v3.6l-2.7,4.1l4.1,2.4c-2.5-1.4-2.7,0.6-2.7,0.6l5.6,3.3C240.5,40.7,281.4,65.5,261.5,91.1z"/>
	<path class="st3" d="M336.6,93.5c0,0,55.1,34.6,20.5,121.5C357.1,215,427.4,137.4,336.6,93.5z"/>
	<path class="st3" d="M311.8,105.9c0,0,44.8,30,16.6,105.1C328.5,210.9,385.5,143.8,311.8,105.9z"/>
	<path class="st3" d="M276.6,108.6c0,0-11.4,50.2-5.2,104.6C271.4,213.2,248.7,169.4,276.6,108.6z"/>
</g>
</svg>
