<?xml version="1.0" encoding="utf-8"?>
<!-- Generator: Adobe Illustrator 19.2.1, SVG Export Plug-In . SVG Version: 6.00 Build 0)  -->
<svg version="1.1" id="Layer_1" xmlns="http://www.w3.org/2000/svg" xmlns:xlink="http://www.w3.org/1999/xlink" x="0px" y="0px"
	 viewBox="0 0 587.9 171.4" style="enable-background:new 0 0 587.9 171.4;" xml:space="preserve">
<style type="text/css">
	.st0{fill:#F9A040;}
	.st1{fill:#F7902B;}
	.st2{fill:#4C3217;}
	.st3{fill:#F18121;}
	.st4{fill:none;stroke:#000000;stroke-miterlimit:10;}
</style>
<g id="Webs_and_Pumpkins">
	<g id="Layer_1_1_">
		<path class="st0" d="M178.7,37.2c-5.2,0-10.3,0.7-15,1.8c-4.8-1.2-9.8-1.8-15-1.8c-30.9,0-55.9,22.6-55.9,50.4s25,50.4,55.9,50.4
			c5.2,0,10.3-0.7,15-1.8c4.8,1.2,9.8,1.8,15,1.8c30.8,0,55.9-22.6,55.9-50.4S209.6,37.2,178.7,37.2z"/>
		<path class="st1" d="M129.6,47.2c0,0-34.4,21.6-12.8,75.8C116.8,123,73,74.6,129.6,47.2z"/>
		<path class="st1" d="M145.1,54.9c0,0-28,18.7-10.4,65.6C134.7,120.4,99.1,78.6,145.1,54.9z"/>
		<path class="st2" d="M150.9,44.1l7.6,1.5l7.2-0.7l4-0.7l2.2-2.1c0,0-6.8-9-8.5-10.4c0,0-4.4-16.6-25-27.7L136,5.1L135,4v2.2
			l-1.7,2.6l2.6,1.5c-1.6-0.9-1.7,0.4-1.7,0.4l3.5,2.1C137.8,12.7,163.2,28.1,150.9,44.1z"/>
		<path class="st1" d="M197.7,45.6c0,0,34.4,21.6,12.8,75.8C210.5,121.4,254.4,73,197.7,45.6z"/>
		<path class="st1" d="M182.2,53.3c0,0,28,18.7,10.4,65.6C192.6,118.9,228.2,77,182.2,53.3z"/>
		<path class="st1" d="M160.2,55c0,0-7.1,31.3-3.3,65.3C157,120.3,142.8,93,160.2,55z"/>
	</g>
	<g id="Layer_2">
		<path class="st1" d="M262.5,48.4c-4.7,0-9.2,0.6-13.4,1.7c-4.3-1.1-8.8-1.7-13.4-1.7c-27.5,0-49.7,20.1-49.7,44.9
			s22.2,44.9,49.7,44.9c4.7,0,9.2-0.6,13.4-1.7c4.3,1.1,8.8,1.7,13.4,1.7c27.5,0,49.7-20.1,49.7-44.9S289.9,48.4,262.5,48.4z"/>
		<path class="st3" d="M218.8,57.2c0,0-30.6,19.2-11.4,67.4C207.4,124.6,168.5,81.6,218.8,57.2z"/>
		<path class="st3" d="M232.6,64.1c0,0-24.8,16.6-9.2,58.3C223.4,122.4,191.7,85.2,232.6,64.1z"/>
		<path class="st2" d="M237.7,54.5l6.8,1.3l6.4-0.7l3.6-0.7l2-1.8c0,0-6.1-8-7.5-9.2c0,0-3.9-14.8-22.2-24.7l-2.2,1l-1-1v2l-1.5,2.3
			l2.3,1.3c-1.4-0.8-1.5,0.3-1.5,0.3l3.1,1.8C226.1,26.6,248.8,40.3,237.7,54.5z"/>
		<path class="st3" d="M279.4,55.9c0,0,30.6,19.2,11.4,67.4C290.7,123.2,329.7,80.2,279.4,55.9z"/>
		<path class="st3" d="M265.6,62.7c0,0,24.8,16.6,9.2,58.3C274.9,121,306.5,83.8,265.6,62.7z"/>
		<path class="st3" d="M246.1,64.2c0,0-6.3,27.8-2.9,58C243.2,122.2,230.6,98,246.1,64.2z"/>
	</g>
	<g id="G_webs">
		<path class="st4" d="M32,54.9l30.6,16c0,0-1.9-14.9,12.9-18.7"/>
		<path class="st4" d="M72.2,42.2c-17.9,5-18.5,24-18.5,24s-16.3,6-18.2,19.2"/>
		<path class="st4" d="M66.1,36.4c-19.8,5.2-20.5,25.1-20.5,25.1s-11.8,2.4-19,17.9"/>
		<path class="st4" d="M62.5,70.9c0,0-15.1,6.2-18.9,18.1"/>
		<path class="st4" d="M18.2,74.8l27.4,14.9c0,0-13.7,3.1-19,28.7"/>
		<path class="st4" d="M26.7,79.4c0,0-9.9,8.6-6.6,18.5"/>
		<path class="st4" d="M37.5,85.1c-3.6,0.2-11.7,6.7-16.7,21.2"/>
		<path class="st4" d="M335.5,54.9l30.6,16c0,0-1.9-14.9,12.9-18.7"/>
		<path class="st4" d="M375.7,42.2c-17.9,5-18.5,24-18.5,24s-15.3,6-17.2,19.2"/>
		<path class="st4" d="M369.6,36.4c-19.8,5.2-20.5,25.1-20.5,25.1s-11.8,2.4-19,17.9"/>
		<path class="st4" d="M366,70.9c0,0-15.1,4.5-19.1,18.3"/>
		<path class="st4" d="M321.7,74.7l27.4,14.9c0,0-13.7,3.1-19,28.7"/>
		<path class="st4" d="M330.2,79.3c0,0-9.9,8.6-6.6,18.5"/>
		<path class="st4" d="M341,85.1c0,0-10,1.6-16.7,21.2"/>
	</g>
	<g id="LE_webs">
		<path class="st4" d="M435.6,51.4c0,0,1.2,20.9,20,25.4c0,0-4,27.3,25,41.4"/>
		<line class="st4" x1="455.6" y1="76.9" x2="432.6" y2="94.1"/>
		<path class="st4" d="M469.9,122.9c-19-11.8-22-40.2-22-40.2s-10.2-4.2-15.2-18.9"/>
		<path class="st4" d="M462.3,128.4c-19-11.8-22-40.2-22-40.2S430,84.1,425,69.3"/>
		<path class="st4" d="M530.9,81.9c0,0,6.2-19.8,20.2-21.2c0,0-1-15,14.5-21.8"/>
		<line class="st4" x1="551.1" y1="60.6" x2="519.6" y2="40.6"/>
		<path class="st4" d="M520.1,79.1c0,0,8.3-22.8,22.3-24.3c0,0-1-15,14.5-21.8"/>
		<path class="st4" d="M515.5,69.6c0,0,4.2-18.8,18.2-20.3c0,0-1-11,14.5-17.7"/>
		<path class="st4" d="M516.9,94.1c0,0,9,13,18.5,11.1c0,0,0.8,16.5,33.8,21.5"/>
		<line class="st4" x1="535.4" y1="105.3" x2="522.2" y2="126.8"/>
		<path class="st4" d="M512.3,101.9c0,0,9,13,18.5,11.1c0,0-2.2,11.5,30.8,16.5"/>
	</g>
</g>
<g id="Letters_1_">
	<path d="M71.3,68.7l13.9-27c0,0-9.9-10.1-25.3-12.3c0,0-30.3-4.4-50.7,36c0,0-4.9,13.5-8.2,16.3c0,0-1.7,1.7,0.9,0.9
		s0.5,23.8,0.5,23.8l0.8,1.6l1.6-0.8c0,0,0.5,18.1,9,17.1c0,0-1.6,1.4-0.8,2.5s5.8,9.2,29.4,12.3l0.9-0.9l0.8,0.9
		c0,0,6.6,0.9,13.9-1.6c0,0,16.9-9.9,17.2-21.2c0,0,9-10.3,9.8-14.8h6.6l3.3,2.5c0,0-0.9,16.3-3.3,18.8c0,0-0.4,5.3,1.6,6.6
		l-2.4,4.9c0,0-0.1,2.2,2.4,1.6c0,0,5.3-5.3,0.8-5.7l0.9-0.9c0,0,2.4-7.7,4.1-9v-0.8h-1.6c0,0,2.4-10.2,2.5-13.1
		c0,0,4.1-9.4,4.1-16.3l-3.3-4.9l-7.4,1.6L88.4,86c0,0-1.8,3.3-3.2,0l-5.7,1.6l-4.1-0.9l-0.9,0.9l-1.6-0.9c0,0-4.8,3.1-12.2,0.8
		c0,0-1.2,1.6-4.1,1.6s-9.8,0-9.8,0s-4.5,0.3-7.3-2.5H37l-2.4,2.5c0,0-0.6,8.6,0.8,15.5l-0.8,3.3h1.6c0,0,4.7-7.6,11.4-6.6
		s5.7,5.8,5.7,5.8s-3.4,0.1-4.1,3.3l0.9,1.6c0,0-2,0.4-1.6,1.6s0.3,1.8,4,1.6c0,0,0.9-8.4,3.3-7.3l1.6,0.9l-0.9,1.6l0.9,1.6l2.4-1.6
		c0,0,0.8-1.5,0.9,2.4s-2.5,19.1-28.7,10.6c0,0,0.2-3.5-2.4-3.3c0,0-2.5-8.3-7.3-8.2c0,0,3.1-4.3-1.6-4.1l0.8-0.8
		c0,0-6.1-25,10.6-44l1.6,3.3l1.6-0.9L34.5,58l3.4,1.7h0.8l-0.8-4.1c0,0,0.7-2.2,2.4-1.6c0,0,0.8,4.6,2.4,4.9s-0.8-3.3-0.8-3.3
		s-0.7-3.7,4.1-3.3v-4.9c0,0,2.7-0.9,4.1,4.1l1.6-0.8l-0.9-4.1v-0.9l4.1,0.9c0,0,1.4-4.4,4.1-4.1s7.5-0.5,13,10.6l-1.6,14.8
		L71.3,68.7z"/>
	<path d="M376,69.2l13.9-27c0,0-9.9-10.1-25.3-12.3c0,0-30.3-4.4-50.7,36c0,0-4.9,13.5-8.2,16.3c0,0-1.7,1.7,0.9,0.9
		c2.6-0.8,0.5,23.8,0.5,23.8l0.8,1.6l1.6-0.8c0,0,0.5,18.1,9,17.1c0,0-1.6,1.4-0.8,2.5c0.8,1.1,5.8,9.2,29.4,12.3l0.9-0.9l0.8,0.9
		c0,0,6.6,0.9,13.9-1.6c0,0,16.9-9.9,17.2-21.2c0,0,9-10.3,9.8-14.8h6.6l3.3,2.5c0,0-0.9,16.3-3.3,18.8c0,0-0.4,5.3,1.6,6.6
		l-2.4,4.9c0,0-0.1,2.2,2.4,1.6c0,0,5.3-5.3,0.8-5.7l0.9-0.9c0,0,2.4-7.7,4.1-9V120h-1.6c0,0,2.4-10.2,2.5-13.1
		c0,0,4.1-9.4,4.1-16.3l-3.3-4.9l-7.4,1.6l-4.9-0.8c0,0-1.8,3.3-3.2,0l-5.7,1.6l-4.1-0.9l-0.9,0.9l-1.6-0.9c0,0-4.8,3.1-12.2,0.8
		c0,0-1.2,1.6-4.1,1.6c-2.9,0-9.8,0-9.8,0s-4.5,0.3-7.3-2.5h-2.5l-2.4,2.5c0,0-0.6,8.6,0.8,15.5l-0.8,3.3h1.6c0,0,4.7-7.6,11.4-6.6
		c6.7,1,5.7,5.8,5.7,5.8s-3.4,0.1-4.1,3.3l0.9,1.6c0,0-2,0.4-1.6,1.6c0.4,1.2,0.3,1.8,4,1.6c0,0,0.9-8.4,3.3-7.3l1.6,0.9l-0.9,1.6
		l0.9,1.6l2.4-1.6c0,0,0.8-1.5,0.9,2.4c0.1,3.9-2.5,19.1-28.7,10.6c0,0,0.2-3.5-2.4-3.3c0,0-2.5-8.3-7.3-8.2c0,0,3.1-4.3-1.6-4.1
		l0.8-0.8c0,0-6.1-25,10.6-44l1.6,3.3l1.6-0.9l-0.8-7.4l3.4,1.7h0.8l-0.8-4.1c0,0,0.7-2.2,2.4-1.6c0,0,0.8,4.6,2.4,4.9
		c1.6,0.3-0.8-3.3-0.8-3.3s-0.7-3.7,4.1-3.3v-4.9c0,0,2.7-0.9,4.1,4.1l1.6-0.8l-0.9-4.1v-0.9l4.1,0.9c0,0,1.4-4.4,4.1-4.1
		c2.7,0.3,7.5-0.5,13,10.6l-1.6,14.8L376,69.2z"/>
	<path d="M435.4,132.2l22.3,1.6h14.4l1.6-0.1l2.4-0.8l10.4,2.3l4,6.4h1.6c0,0,3.9-4.3,4.8-12.7c0,0-2.1-2.9,0-10.4l-2.3-1.6H493
		l-1.6,0.8c0,0-0.2-2.6-2.4-2.4s-3.2,4-3.2,4h-4l-2.3-1.6h-0.8v3.2h-4v-1.6c0,0-2.1-0.1-2.4,0.8c0,0-4.7,0.2-8-0.8l-4.8,0.8
		c0,0-14.9-1.3-16-5.5l-7.1-4.8l0.8-1.6c0,0,1.2-4.2-1.6-3.9c0,0-0.2-1.4,1.6-1.6l-0.8-1.6V83.6l-0.9-1.6h0.9c0,0-0.9-23.9,2.3-29.5
		l-0.8-4.8v-1.6c0,0,6.7,0.1,6.4-4h1.6c0,0,0.7,16.1-3.2,19.2v0.8c0,0,0.8,2.4,2.4,2.4s3.2-0.8,3.2-0.8l-0.8-13.6l1.6-8.8v-4
		l-0.8-1.6l0.8-0.8v-0.8c0,0,0.5-1.4-4-2.4l-1.6,0.9L426,30.2l-0.8,0.8l-0.8-0.8c0,0-1.8-0.2-4.8,1.4l-0.8-0.8l-4.8,2.4l0.8,4
		l6.4,8.8v2.4c0,0-1.8-0.2-3.2,0.8l4,4.8v6.4l-0.8,4.8c0,0,1,2.2,0.8,4s-1,6.3-1,6.3l0.8,0.8l-0.8,1.6l0.8,7.2
		c0,0,0.5,22.7-3.2,22.3l0.8,6.4l-0.8,3.2l0.8,0.8l-2.3,3.2l0.8,2.3c0,0-6.6,2.4-7.2,4s0,3.2,0,3.2s1.8,0.2,3.2,2.4h0.8
		c0,0,0-2.4,1.6-2.4s1.6,0.8,1.6,0.8s1.8-0.1,5.5,3.2C423.4,134.5,431.3,135.1,435.4,132.2z"/>
	<path d="M498.7,37.1c0,0,6.3,6.2,7.3,10.2v9.9l-0.7,3.6l0.7,0.7l-1.5,5.2l1.5,2.1v6.6l0.7,3.7l-0.7,0.7l1.5,2.2
		c0,0,1.3,6.9-1.5,10.2l0.7,1.5l-1.4,2.9l2.9,4.4l-3.7-0.7c0,0-0.1,4.3,3.7,6.5l-1.5,3.7c0,0,4.2,1.6,4.4,5.8l-2.7,3.7l-1.7,2.2
		c0,0,0.3,5.4,0.8,6.6l-1.5,2.1c0,0-1.8,0.2-1.5,1.5h2.2v2.9l-1.4,2.2c0,0-0.7,1.8,4.4,4.4c0,0,1.5-0.3,1.4-1.5l2.9,0.8l8.8-0.8
		l5.1-0.7l24,1.5l5.9-0.8l6.5,0.8h5.9l3.6,0.7l0.8-0.7l1.4,0.7l1.5-0.7c0,0,2.4,0.8,5.1-15.3l-2.9-3.6h-1.5c0,0-10.2,6.5-13.8,5.8
		l-0.7-0.7h-2.9l-1.5,0.7l-0.7-0.7h-4.4l-1.4,0.7v-0.7l-3.7,0.7h-18.2l-8-2.9l0.7-0.7l-2.9-29.1c0,0,2-0.1,1.5-2.1
		c0,0,0.8-1.4,1.4,1.4c0,0,1.8-0.1,1.5-2.9l16.7-0.7v1.4l2.2-0.7l1.5,2.9c0,0,1.8-0.4,1.4-2.2h0.7c0,0,0.6,6.8,1.5,6.6
		s1.5-1.5,1.5-1.5v-5.1c0,0,2.2-0.3,2.2,1.5s-0.8,7.3-0.8,7.3s1.7,4.4,3,4.4s1.3,0,1.3,0l1.5-1.5c0,0,0.6-5-2.2-5.8l1.4-5.9
		c0,0-2.5-2-1.4-14.6l-1.5-1.4h-1.4c0,0-3.7,4.9-27.7,4.3l-3.7-0.7l-1.2-1c0,0-1.7-2.8-1.7-6.3l-0.7-17.4c0,0,6-0.9,8.8-5.9h1.4
		c0,0,1.2-0.3,1.5,1.5l1.4-0.7L533,51l0.8-1.5c0,0,0.7,1.3,2.2,1.5s1.4-2.2,1.4-2.2h1.5l1.4,2.9l2.2-0.7l2.2,2.2c0,0,1.7,0,1.5-1.5
		h2.9v-5.1l8-0.7v0.7c0,0,10.6,1.7,10.9,3.7c0,0,8.2-1,6.6,15.2l1.4,2.9l-2.2,7.3c0,0,2.2,6.6,3.7,6.6s1.5,0,1.5,0s0.6-0.6-0.8-2.2
		l1.5-3.6l-0.7-2.2l0.7-6.6l-0.7-5.1c0,0,1.3-0.4,0.7-3.7s0-1.4,0-1.4l0.7-2.2l-2.2-3c0,0-0.4-4.1,0.8-5.1s-2.6-18.4-5.2-17.4
		c0,0-13.4-0.4-21.8,0.7l-0.7-0.7c0,0-14.1,3.7-24.8,3.7h-3.7l-2.9-0.8l-2.9,0.8h-9.5l-6.6-1.5c0,0-2.2-0.3-2.2,1.5
		C498.7,35.3,498.7,37.1,498.7,37.1z"/>
</g>
</svg>
