<?xml version="1.0" encoding="utf-8"?>
<!-- Generator: Adobe Illustrator 19.2.1, SVG Export Plug-In . SVG Version: 6.00 Build 0)  -->
<svg version="1.1" id="Layer_1" xmlns="http://www.w3.org/2000/svg" xmlns:xlink="http://www.w3.org/1999/xlink" x="0px" y="0px"
	 viewBox="0 0 136.7 158.1" style="enable-background:new 0 0 136.7 158.1;" xml:space="preserve">
<style type="text/css">
	.st0{fill:none;}
	.st1{font-family:'Gorestep';}
	.st2{font-size:150px;}
	.st3{fill:none;stroke:#000000;stroke-width:0.5;stroke-miterlimit:10;}
</style>
<rect x="0" y="22.5" class="st0" width="136.7" height="124"/>
<text transform="matrix(1 0 0 1 3.889847e-02 127.5145)" class="st1 st2">G</text>
<path class="st3" d="M29,51.8l27.8,14.5c0,0-1.7-13.5,11.7-17"/>
<path class="st3" d="M65.5,40.3c-16.2,4.5-16.8,21.8-16.8,21.8s-13,2.7-14.7,14.7"/>
<path class="st3" d="M60,35c-18,4.7-18.6,22.8-18.6,22.8S30.7,60,24.2,74"/>
<path class="st3" d="M56.7,66.3c0,0-11.9,2-15.3,12.8"/>
<path class="st3" d="M16.5,69.8l24.9,13.5c0,0-12.4,2.8-17.2,26"/>
<path class="st3" d="M24.2,74c0,0-9,7.8-6,16.8"/>
<path class="st3" d="M34,79.2c0,0-8.2,0.5-14.2,18.3"/>
</svg>
