<?xml version="1.0" encoding="utf-8"?>
<!-- Generator: Adobe Illustrator 19.2.1, SVG Export Plug-In . SVG Version: 6.00 Build 0)  -->
<svg version="1.1" id="Layer_1" xmlns="http://www.w3.org/2000/svg" xmlns:xlink="http://www.w3.org/1999/xlink" x="0px" y="0px"
	 viewBox="0 0 587.9 171.4" style="enable-background:new 0 0 587.9 171.4;" xml:space="preserve">
<style type="text/css">
	.st0{fill:#F9A040;}
	.st1{fill:#F7902B;}
	.st2{fill:#4C3217;}
	.st3{fill:#F18121;}
	.st4{fill:none;stroke:#000000;stroke-miterlimit:10;}
	.st5{enable-background:new    ;}
</style>
<g id="Pumpkins">
	<g id="Layer_1_1_">
		<path class="st0" d="M178.7,37.2c-5.2,0-10.3,0.7-15,1.8c-4.8-1.2-9.8-1.8-15-1.8c-30.9,0-55.9,22.6-55.9,50.4s25,50.4,55.9,50.4
			c5.2,0,10.3-0.7,15-1.8c4.8,1.2,9.8,1.8,15,1.8c30.8,0,55.9-22.6,55.9-50.4S209.6,37.2,178.7,37.2z"/>
		<path class="st1" d="M129.6,47.2c0,0-34.4,21.6-12.8,75.8C116.8,123,73,74.6,129.6,47.2z"/>
		<path class="st1" d="M145.1,54.9c0,0-28,18.7-10.4,65.6C134.7,120.4,99.1,78.6,145.1,54.9z"/>
		<path class="st2" d="M150.9,44.1l7.6,1.5l7.2-0.7l4-0.7l2.2-2.1c0,0-6.8-9-8.5-10.4c0,0-4.4-16.6-25-27.7L136,5.1L135,4v2.2
			l-1.7,2.6l2.6,1.5c-1.6-0.9-1.7,0.4-1.7,0.4l3.5,2.1C137.8,12.7,163.2,28.1,150.9,44.1z"/>
		<path class="st1" d="M197.7,45.6c0,0,34.4,21.6,12.8,75.8C210.5,121.4,254.4,73,197.7,45.6z"/>
		<path class="st1" d="M182.2,53.3c0,0,28,18.7,10.4,65.6C192.6,118.9,228.2,77,182.2,53.3z"/>
		<path class="st1" d="M160.2,55c0,0-7.1,31.3-3.3,65.3C157,120.3,142.8,93,160.2,55z"/>
	</g>
	<g id="Layer_2">
		<path class="st1" d="M262.5,48.4c-4.7,0-9.2,0.6-13.4,1.7c-4.3-1.1-8.8-1.7-13.4-1.7c-27.5,0-49.7,20.1-49.7,44.9
			s22.2,44.9,49.7,44.9c4.7,0,9.2-0.6,13.4-1.7c4.3,1.1,8.8,1.7,13.4,1.7c27.5,0,49.7-20.1,49.7-44.9S289.9,48.4,262.5,48.4z"/>
		<path class="st3" d="M218.8,57.2c0,0-30.6,19.2-11.4,67.4C207.4,124.6,168.5,81.6,218.8,57.2z"/>
		<path class="st3" d="M232.6,64.1c0,0-24.8,16.6-9.2,58.3C223.4,122.4,191.7,85.2,232.6,64.1z"/>
		<path class="st2" d="M237.7,54.5l6.8,1.3l6.4-0.7l3.6-0.7l2-1.8c0,0-6.1-8-7.5-9.2c0,0-3.9-14.8-22.2-24.7l-2.2,1l-1-1v2l-1.5,2.3
			l2.3,1.3c-1.4-0.8-1.5,0.3-1.5,0.3l3.1,1.8C226.1,26.6,248.8,40.3,237.7,54.5z"/>
		<path class="st3" d="M279.4,55.9c0,0,30.6,19.2,11.4,67.4C290.7,123.2,329.7,80.2,279.4,55.9z"/>
		<path class="st3" d="M265.6,62.7c0,0,24.8,16.6,9.2,58.3C274.9,121,306.5,83.8,265.6,62.7z"/>
		<path class="st3" d="M246.1,64.2c0,0-6.3,27.8-2.9,58C243.2,122.2,230.6,98,246.1,64.2z"/>
	</g>
</g>
<g id="G2_webs">
	<path class="st4" d="M333.7,52.7l30.6,16c0,0-1.9-14.9,12.9-18.7"/>
	<path class="st4" d="M373.9,40c-17.9,5-18.5,24-18.5,24s-16.3,6-18.2,19.2"/>
	<path class="st4" d="M367.8,34.2c-19.8,5.2-20.5,25.1-20.5,25.1s-11.8,2.4-19,17.9"/>
	<path class="st4" d="M364.2,68.7c0,0-15.1,6.2-18.9,18.1"/>
	<path class="st4" d="M319.9,72.6l27.4,14.9c0,0-13.7,3.1-19,28.7"/>
	<path class="st4" d="M328.4,77.2c0,0-9.9,8.6-6.6,18.5"/>
	<path class="st4" d="M339.2,82.9c-3.6,0.2-11.7,6.7-16.7,21.2"/>
</g>
<g id="G1_webs">
	<path class="st4" d="M33,53.3l30.6,16c0,0-1.9-14.9,12.9-18.7"/>
	<path class="st4" d="M73.2,40.6c-17.9,5-18.5,24-18.5,24s-16.3,6-18.2,19.2"/>
	<path class="st4" d="M67.1,34.8C47.3,40,46.6,59.9,46.6,59.9s-11.8,2.4-19,17.9"/>
	<path class="st4" d="M63.5,69.3c0,0-15.1,6.2-18.9,18.1"/>
	<path class="st4" d="M19.2,73.2l27.4,14.9c0,0-13.7,3.1-19,28.7"/>
	<path class="st4" d="M27.7,77.8c0,0-9.9,8.6-6.6,18.5"/>
	<path class="st4" d="M38.5,83.5c-3.6,0.2-11.7,6.7-16.7,21.2"/>
</g>
<g id="L_webs">
	<path class="st4" d="M443.3,65.4c0,0,0.5,17.5,13.5,21.6c0,0-3.2,22.8,16.8,35"/>
	<line class="st4" x1="456.8" y1="87" x2="440.5" y2="101.2"/>
	<path class="st4" d="M466.1,125.8c-13.1-10.1-14.7-34-14.7-34s-7-3.7-10.3-16"/>
	<path class="st4" d="M460.7,130.3c-13.1-10.1-14.7-34-14.7-34s-7.1-3.6-10.4-16.1"/>
</g>
<g id="E_webs">
	<path class="st4" d="M523.9,77.7c0,0,4.4-14,14.2-14.9c0,0-0.7-10.6,10.2-15.4"/>
	<line class="st4" x1="538.1" y1="62.7" x2="515.9" y2="48.6"/>
	<path class="st4" d="M516.2,75.7c0,0,5.8-16.1,15.7-17.1c0,0-0.7-10.6,10.2-15.4"/>
	<path class="st4" d="M513,69c0,0,3-13.2,12.8-14.3c0,0-0.7-7.8,10.2-12.5"/>
	<path class="st4" d="M511.8,96.6c0,0,6.6,9.5,13.5,8.1c0,0,0.6,12,24.7,15.7"/>
	<line class="st4" x1="525.3" y1="104.8" x2="515.7" y2="120.5"/>
	<path class="st4" d="M508.5,102.3c0,0,6.6,9.5,13.5,8.1c0,0-1.6,8.4,22.5,12"/>
</g>
<g id="Letters">
	<g class="st5">
		<path d="M103.8,47.8L89.3,62.1c-9.1-9.7-19.8-14.5-32-14.5c-10.6,0-19.5,3.5-26.6,10.5C23.6,65.2,20,73.7,20,83.8
			c0,10.4,3.7,19.2,11.1,26.4c7.4,7.2,16.6,10.8,27.5,10.8c7.1,0,13.1-1.5,17.9-4.5c4.9-3,8.8-7.6,11.8-14H57.1V83.4h54.2l0.1,4.5
			c0,9.4-2.4,18.4-7.3,26.8c-4.9,8.4-11.2,14.9-19,19.3s-16.9,6.7-27.3,6.7c-11.2,0-21.2-2.4-29.9-7.3c-8.8-4.9-15.7-11.8-20.8-20.8
			C2,103.7-0.5,94-0.5,83.6c0-14.3,4.7-26.7,14.1-37.2c11.2-12.5,25.7-18.8,43.7-18.8c9.4,0,18.1,1.7,26.3,5.2
			C90.4,35.7,97.2,40.7,103.8,47.8z"/>
	</g>
	<g class="st5">
		<path d="M405.7,47.8l-14.4,14.3c-9.1-9.7-19.8-14.5-32-14.5c-10.6,0-19.5,3.5-26.6,10.5c-7.2,7-10.7,15.6-10.7,25.6
			c0,10.4,3.7,19.2,11.1,26.4c7.4,7.2,16.6,10.8,27.5,10.8c7.1,0,13.1-1.5,17.9-4.5c4.9-3,8.8-7.6,11.8-14h-31.2V83.4h54.2l0.1,4.5
			c0,9.4-2.4,18.4-7.3,26.8c-4.9,8.4-11.2,14.9-19,19.3s-16.9,6.7-27.3,6.7c-11.2,0-21.2-2.4-29.9-7.3c-8.8-4.9-15.7-11.8-20.8-20.8
			c-5.1-9-7.7-18.7-7.7-29.1c0-14.3,4.7-26.7,14.1-37.2c11.2-12.5,25.7-18.8,43.7-18.8c9.4,0,18.1,1.7,26.3,5.2
			C392.4,35.7,399.1,40.7,405.7,47.8z"/>
	</g>
	<g class="st5">
		<path d="M423.3,30.3h20.5v88.2h29.9V138h-50.4V30.3z"/>
	</g>
	<g class="st5">
		<path d="M493,30.3h58.8v20.1h-38.5v19.5h38.5v19.7h-38.5v28.3h38.5V138H493V30.3z"/>
	</g>
</g>
</svg>

