<?xml version="1.0" encoding="utf-8"?>
<!-- Generator: Adobe Illustrator 19.2.1, SVG Export Plug-In . SVG Version: 6.00 Build 0)  -->
<svg version="1.1" id="Layer_1" xmlns="http://www.w3.org/2000/svg" xmlns:xlink="http://www.w3.org/1999/xlink" x="0px" y="0px"
	 viewBox="0 0 587.9 171.4" style="enable-background:new 0 0 587.9 171.4;" xml:space="preserve">
<style type="text/css">
	.st0{fill:#F9A040;}
	.st1{fill:#F7902B;}
	.st2{fill:#4C3217;}
	.st3{fill:#F18121;}
	.st4{enable-background:new    ;}
	.st5{fill:#010101;}
	.st6{fill:none;stroke:#010101;stroke-miterlimit:10;}
</style>
<g id="Layer_1_1_">
	<path class="st0" d="M178.7,37.2c-5.2,0-10.3,0.7-15,1.8c-4.8-1.2-9.8-1.8-15-1.8c-30.9,0-55.9,22.6-55.9,50.4s25,50.4,55.9,50.4
		c5.2,0,10.3-0.7,15-1.8c4.8,1.2,9.8,1.8,15,1.8c30.8,0,55.9-22.6,55.9-50.4S209.6,37.2,178.7,37.2z"/>
	<path class="st1" d="M129.6,47.2c0,0-34.4,21.6-12.8,75.8C116.8,123,73,74.6,129.6,47.2z"/>
	<path class="st1" d="M145.1,54.9c0,0-28,18.7-10.4,65.6C134.7,120.4,99.1,78.6,145.1,54.9z"/>
	<path class="st2" d="M150.9,44.1l7.6,1.5l7.2-0.7l4-0.7l2.2-2.1c0,0-6.8-9-8.5-10.4c0,0-4.4-16.6-25-27.7L136,5.1L135,4v2.2
		l-1.7,2.6l2.6,1.5c-1.6-0.9-1.7,0.4-1.7,0.4l3.5,2.1C137.8,12.7,163.2,28.1,150.9,44.1z"/>
	<path class="st1" d="M197.7,45.6c0,0,34.4,21.6,12.8,75.8C210.5,121.4,254.4,73,197.7,45.6z"/>
	<path class="st1" d="M182.2,53.3c0,0,28,18.7,10.4,65.6C192.6,118.9,228.2,77,182.2,53.3z"/>
	<path class="st1" d="M160.2,55c0,0-7.1,31.3-3.3,65.3C157,120.3,142.8,93,160.2,55z"/>
</g>
<g id="Layer_2">
	<path class="st1" d="M262.5,48.4c-4.7,0-9.2,0.6-13.4,1.7c-4.3-1.1-8.8-1.7-13.4-1.7c-27.5,0-49.7,20.1-49.7,44.9
		s22.2,44.9,49.7,44.9c4.7,0,9.2-0.6,13.4-1.7c4.3,1.1,8.8,1.7,13.4,1.7c27.5,0,49.7-20.1,49.7-44.9S289.9,48.4,262.5,48.4z"/>
	<path class="st3" d="M218.8,57.2c0,0-30.6,19.2-11.4,67.4C207.4,124.6,168.5,81.6,218.8,57.2z"/>
	<path class="st3" d="M232.6,64.1c0,0-24.8,16.6-9.2,58.3C223.4,122.4,191.7,85.2,232.6,64.1z"/>
	<path class="st2" d="M237.7,54.5l6.8,1.3l6.4-0.7l3.6-0.7l2-1.8c0,0-6.1-8-7.5-9.2c0,0-3.9-14.8-22.2-24.7l-2.2,1l-1-1v2l-1.5,2.3
		l2.3,1.3c-1.4-0.8-1.5,0.3-1.5,0.3l3.1,1.8C226.1,26.6,248.8,40.3,237.7,54.5z"/>
	<path class="st3" d="M279.4,55.9c0,0,30.6,19.2,11.4,67.4C290.7,123.2,329.7,80.2,279.4,55.9z"/>
	<path class="st3" d="M265.6,62.7c0,0,24.8,16.6,9.2,58.3C274.9,121,306.5,83.8,265.6,62.7z"/>
	<path class="st3" d="M246.1,64.2c0,0-6.3,27.8-2.9,58C243.2,122.2,230.6,98,246.1,64.2z"/>
</g>
<g id="G_x27_s">
	<g class="st4">
		<path class="st5" d="M58.9,26.4c8.8,1.7,17.2,5.8,25.3,12.3v1.6c-4.7,7.1-7.9,13.3-9.8,18.8l-4.1,6.6c0-0.5-0.3-0.8-0.9-0.8
			c1.1-8.6,1.6-13.6,1.6-14.8c-3.3-7.1-7.6-10.6-13-10.6c-2.8,0.7-4.1,2.1-4.1,4.1l-4.1-0.9v0.9l0.9,4.1l-1.6,0.8
			c-1.1-2.4-2.2-3.8-3.3-4.1H45v4.9c-2.7,0-4.1,1.1-4.1,3.3c0.5,0.9,0.8,2,0.8,3.3c-1,0-1.8-1.6-2.4-4.9h-0.8
			c-1.1,0.2-1.6,0.7-1.6,1.6l0.8,4.1h-0.8L34.3,55h-0.8v3.3l0.8,4.1l-1.6,0.9c-1.1-1.4-1.6-2.4-1.6-3.3c-7.6,9-11.4,19.6-11.4,31.8
			v2.4l0.8,9.8c-0.5,0-0.8,0.3-0.8,0.8c1.6,0,2.4,0.5,2.4,1.6v0.9l-0.8,1.6c2.7,0,5.2,2.7,7.3,8.2c1.2,0,2.1,1.1,2.4,3.3
			c2,1.6,4,2.4,5.8,2.4h10.6c7.1,0,11.2-4.3,12.3-13v-2.4h-0.9l-2.4,1.6l-0.9-1.6l0.9-1.6l-1.6-0.9c-1.4,0-2.5,2.4-3.3,7.3h-2.4
			c-1.1,0-1.6-0.5-1.6-1.6c0.2-1.1,0.7-1.6,1.6-1.6l-0.9-1.6c0-2.2,1.4-3.3,4.1-3.3c0-3.1-1.9-5.1-5.7-5.8c-3.8,0-7.6,2.2-11.4,6.6
			h-1.6c0-1.2,0.3-2.3,0.8-3.3c-0.5-3.7-0.8-6.7-0.8-9v-6.5c0-0.8,0.8-1.6,2.4-2.5h2.5c2.1,1.7,4.5,2.5,7.3,2.5h9.8
			c2.8,0,4.1-0.5,4.1-1.6l4.1,0.8h3.3c1.5,0,3.1-0.5,4.8-1.6l1.6,0.9c0.6,0,0.9-0.3,0.9-0.9l4.1,0.9l5.7-1.6
			c0.2,1.1,0.8,1.6,1.6,1.6c1.1,0,1.6-0.5,1.6-1.6l4.1,0.8h0.8c3.9-1.1,6-1.6,6.6-1.6h0.8c0.5,0,1.6,1.6,3.3,4.9
			c-0.4,6.4-1.8,11.9-4.1,16.3c0,0.6-0.8,4.9-2.5,13.1H98v0.8c-0.9,0.9-2.2,3.9-4.1,9c-0.6,0-0.9,0.3-0.9,0.9
			c1.1,0.2,1.6,0.7,1.6,1.6c-0.7,2.8-1.5,4.1-2.4,4.1h-0.8c-1.1,0-1.6-0.5-1.6-1.6l2.4-4.9c-1.1-2-1.6-4.2-1.6-6.6
			c1.5,0,2.6-6.2,3.3-18.8l-3.3-2.5H84c0,1.4-3.3,6.3-9.8,14.8c0,5.5-5.7,12.6-17.2,21.2c-4.9,1.1-8.4,1.6-10.6,1.6h-3.3
			c-0.5,0-0.8-0.3-0.8-0.9c-0.6,0-0.9,0.3-0.9,0.9c-16.3-3.3-26.1-7.4-29.4-12.3v-0.9l0.8-1.6c-4.6-0.2-7.6-5.9-9-17.1L2.2,105
			l-0.8-1.6C2.2,94.1,2.5,87,2.5,82v-3.3l-1.6,0.9H0v-0.9c2.4-2.9,5.2-8.3,8.2-16.3C21.9,38.4,38.8,26.4,58.9,26.4z M49.9,39.5v0.9
			h1.6v-0.9H49.9z M70.4,68.9l0.8,1.6h-2.4C68.9,69.5,69.4,68.9,70.4,68.9z M90.7,136l0.9,1.6l-1.6,0.8l-0.9-1.6L90.7,136z"/>
	</g>
	<path class="st6" d="M32,54.9l30.6,16c0,0-1.9-14.9,12.9-18.7"/>
	<path class="st6" d="M72.2,42.2c-17.9,5-18.5,24-18.5,24s-16.3,6-18.2,19.2"/>
	<path class="st6" d="M66.1,36.4c-19.8,5.2-20.5,25.1-20.5,25.1s-11.8,2.4-19,17.9"/>
	<path class="st6" d="M62.5,70.9c0,0-15.1,4.2-18.9,16.1"/>
	<path class="st6" d="M18.2,74.8l27.4,14.9c0,0-13.7,3.1-19,28.7"/>
	<path class="st6" d="M26.7,79.4c0,0-9.9,8.6-6.6,18.5"/>
	<path class="st6" d="M37.5,85.1c0,0-9,0.6-15.7,20.2"/>
	<g class="st4">
		<path class="st5" d="M362.4,26.4c8.8,1.7,17.2,5.8,25.3,12.3v1.6c-4.7,7.1-7.9,13.3-9.8,18.8l-4.1,6.6c0-0.5-0.3-0.8-0.9-0.8
			c1.1-8.6,1.6-13.6,1.6-14.8c-3.3-7.1-7.6-10.6-13-10.6c-2.8,0.7-4.1,2.1-4.1,4.1l-4.1-0.9v0.9l0.9,4.1l-1.6,0.8
			c-1.1-2.4-2.2-3.8-3.3-4.1h-0.9v4.9c-2.7,0-4.1,1.1-4.1,3.3c0.5,0.9,0.8,2,0.8,3.3c-1,0-1.8-1.6-2.4-4.9H342
			c-1.1,0.2-1.6,0.7-1.6,1.6l0.8,4.1h-0.8l-2.5-1.6h-0.8v3.3l0.8,4.1l-1.6,0.9c-1.1-1.4-1.6-2.4-1.6-3.3
			c-7.6,9.1-11.4,19.7-11.4,31.9v2.4l0.8,9.8c-0.5,0-0.8,0.3-0.8,0.8c1.6,0,2.4,0.5,2.4,1.6v0.9l-0.8,1.6c2.7,0,5.2,2.7,7.3,8.2
			c1.2,0,2.1,1.1,2.4,3.3c2,1.6,4,2.4,5.8,2.4H351c7.1,0,11.2-4.3,12.3-13v-2.4h-0.9l-2.4,1.6l-0.9-1.6l0.9-1.6l-1.6-0.9
			c-1.4,0-2.5,2.4-3.3,7.3h-2.4c-1.1,0-1.6-0.5-1.6-1.6c0.2-1.1,0.7-1.6,1.6-1.6l-0.9-1.6c0-2.2,1.4-3.3,4.1-3.3
			c0-3.1-1.9-5.1-5.7-5.8c-3.8,0-7.6,2.2-11.4,6.6h-1.6c0-1.2,0.3-2.3,0.8-3.3c-0.5-3.7-0.8-6.7-0.8-9v-6.5c0-0.8,0.8-1.6,2.4-2.5
			h2.5c2.1,1.7,4.5,2.5,7.3,2.5h9.8c2.8,0,4.1-0.5,4.1-1.6l4.1,0.8h3.3c1.5,0,3.1-0.5,4.8-1.6l1.6,0.9c0.6,0,0.9-0.3,0.9-0.9
			l4.1,0.9l5.7-1.6c0.2,1.1,0.8,1.6,1.6,1.6c1.1,0,1.6-0.5,1.6-1.6l4.1,0.8h0.8c3.9-1.1,6-1.6,6.6-1.6h0.8c0.5,0,1.6,1.6,3.3,4.9
			c-0.4,6.4-1.8,11.9-4.1,16.3c0,0.6-0.8,4.9-2.5,13.1h1.6v0.8c-0.9,0.9-2.2,3.9-4.1,9c-0.6,0-0.9,0.3-0.9,0.9
			c1.1,0.2,1.6,0.7,1.6,1.6c-0.7,2.8-1.5,4.1-2.4,4.1H395c-1.1,0-1.6-0.5-1.6-1.6l2.4-4.9c-1.1-2-1.6-4.2-1.6-6.6
			c1.5,0,2.6-6.2,3.3-18.8l-3.3-2.5h-6.6c0,1.4-3.3,6.3-9.8,14.8c0,5.5-5.7,12.6-17.2,21.2c-4.9,1.1-8.4,1.6-10.6,1.6h-3.3
			c-0.5,0-0.8-0.3-0.8-0.9c-0.6,0-0.9,0.3-0.9,0.9c-16.3-3.3-26.1-7.4-29.4-12.3v-0.9l0.8-1.6c-4.6-0.2-7.6-5.9-9-17.1l-1.6,0.8
			l-0.8-1.6c0.5-9.1,0.8-16.2,0.8-21.3V79l-1.6,0.9h-0.8V79c2.4-2.9,5.2-8.3,8.2-16.3C325.4,38.4,342.3,26.4,362.4,26.4z
			 M353.4,39.4v0.9h1.6v-0.9H353.4z M373.9,68.9l0.8,1.6h-2.4C372.4,69.4,372.9,68.9,373.9,68.9z M394.2,135.9l0.9,1.6l-1.6,0.8
			l-0.9-1.6L394.2,135.9z"/>
	</g>
	<path class="st6" d="M335.5,54.9l30.6,16c0,0-1.9-14.9,12.9-18.7"/>
	<path class="st6" d="M375.7,42.2c-17.9,5-18.5,24-18.5,24s-15.3,6-17.2,19.2"/>
	<path class="st6" d="M369.6,36.4c-19.8,5.2-20.5,25.1-20.5,25.1s-11.8,2.4-19,17.9"/>
	<path class="st6" d="M366,70.9c0,0-14.1,2.5-18.1,16.3"/>
	<path class="st6" d="M321.7,74.7l27.4,14.9c0,0-13.7,3.1-19,28.7"/>
	<path class="st6" d="M330.2,79.3c0,0-9.9,8.6-6.6,18.5"/>
	<path class="st6" d="M341,85.1c0,0-10,1.6-16.7,21.2"/>
</g>
<g id="LE">
	<g class="st4">
		<path d="M423.4,27.2c0.5,0,0.8,0.3,0.8,0.8c0.5,0,0.8-0.3,0.8-0.8l17.5,2.4l1.6-0.9c2.7,0.7,4,1.5,4,2.4v0.8
			c0,0.5-0.3,0.8-0.8,0.8l0.8,1.6v4c-1,5.2-1.6,8.1-1.6,8.8c0,2.8,0.3,7.3,0.8,13.6l-1.6,0.8h-1.6c-0.8,0-1.6-0.8-2.4-2.4v-0.8
			c2.1-2.8,3.2-8.9,3.2-18.4v-0.8h-1.6c0,2.7-2.1,4-6.4,4v1.6l0.8,4.8c-1.6,2.8-2.3,12.6-2.3,29.5h-0.9l0.9,1.6v17.5l0.8,1.6
			c-1.1,0.2-1.6,0.7-1.6,1.6c1.1,0.2,1.6,0.7,1.6,1.6v2.3l-0.8,1.6l7.1,4.8c0,2.1,5.3,4,16,5.5c2.8-0.5,4.3-0.8,4.8-0.8
			c2.8,0.5,5.4,0.8,8,0.8c1-0.5,1.8-0.8,2.4-0.8v1.6h4v-3.2h0.8l2.3,1.6h4c0-1.6,1.1-2.9,3.2-4c0.8,0,1.6,0.8,2.4,2.4l1.6-0.8h1.6
			l2.3,1.6l-0.8,4v3.2c0,1.2,0.3,2.3,0.8,3.2c-1.4,6.6-3,10.9-4.8,12.7h-1.6l-4-6.4c-2.3-1-5.8-1.8-10.4-2.3c-1,0.5-1.8,0.8-2.4,0.8
			V130l-1.6,0.8h-12.7c-0.6,0-0.9-0.3-0.9-0.8c-0.5,0-0.8,0.3-0.8,0.8c-8.2-1-15.7-1.6-22.3-1.6c-2.8,1.6-6.8,2.3-12,2.3
			c0-0.5-1.8-1.8-5.5-4v0.8l-1.6-0.8c-1,0-1.6,0.8-1.6,2.4h-0.8c-1.4-1.6-2.4-2.4-3.2-2.4v-3.2c0-0.9,2.4-2.3,7.2-4
			c-0.5-1-0.8-1.8-0.8-2.3c0.5,0,1.3-1.1,2.3-3.2c0-0.5-0.3-0.8-0.8-0.8l0.8-3.2c-0.5-2.9-0.8-5.1-0.8-6.4c2.1,0,3.2-7.4,3.2-22.3
			l-0.8-7.2l0.8-1.6c0-0.5-0.3-0.8-0.8-0.8l1-5.5v-0.8c0-1.8-0.3-3.1-0.8-4l0.8-4.8V51l-4-4.8c0.9-0.5,2-0.8,3.2-0.8V43l-6.4-8.8
			l-0.8-4l4-2.4h0.8c0.5,0,0.8,0.3,0.8,0.8C420.4,27.7,422,27.2,423.4,27.2z M430.6,53.5V55h0.9v-1.6L430.6,53.5L430.6,53.5z
			 M440.2,113.2l-0.8,1.6l1.6,0.8h0.8v-0.8C441.7,113.8,441.2,113.2,440.2,113.2z M441.7,71l0.8,1.6l-1.6,0.8l-0.8-1.6L441.7,71z
			 M441.7,34.3v1.6c0.6,0,1.4,0.3,2.4,0.8v-2.3L441.7,34.3L441.7,34.3z M441.7,64.7h1.6c1,0.2,1.6,0.7,1.6,1.6l-1.6,0.8
			c-1.1,0-1.6-0.5-1.6-1.6V64.7z"/>
		<path d="M550.3,26.8c0.5,0,0.7,0.2,0.7,0.7l7.3-0.7h14.5c2,0,3.7,5.8,5.2,17.4c-0.5,0.9-0.8,1.9-0.8,3v2.1l1.5,5.2H578l0.7,1.4
			c0,1.6-0.2,2.8-0.7,3.7c0.5,1.9,0.7,3.6,0.7,5.1l-0.7,6.6c0.5,0.9,0.7,1.7,0.7,2.2l-1.5,3.6c0.5,0.9,0.8,1.7,0.8,2.2h-1.5
			c-0.8,0-2.1-2.2-3.7-6.6c0-1.4,0.7-3.8,2.2-7.3l-1.4-2.9c0-0.5,0.2-1.2,0.7-2.2c-0.5-8.7-2.9-13-7.3-13c0-1-3.6-2.2-10.9-3.7v-0.7
			l-5.1,0.7h-2.9v5.1h-2.9c0,1-0.5,1.5-1.5,1.5c-0.3,0-1-0.7-2.2-2.2c-0.9,0.5-1.7,0.7-2.2,0.7c-0.9-1.2-1.4-2.2-1.4-2.9h-1.5
			c0,1.5-0.5,2.2-1.4,2.2l-2.2-1.5L532,48l-1.4-0.7h-0.8l-1.4,0.7c0-1-0.5-1.5-1.5-1.5h-1.4c-2.4,3.9-5.4,5.9-8.8,5.9
			c0.5,7.2,0.7,12.6,0.7,15.9v1.5c0.7,4.8,1.7,7.3,2.9,7.3l3.7,0.7c14.8,0,24.1-1.4,27.7-4.3h1.4c1,0.1,1.5,0.6,1.5,1.4v6.6
			c0,3.4,0.5,6.1,1.4,8l-1.4,5.9c1.5,0.5,2.2,1.9,2.2,4.4v1.4c0,1-0.5,1.5-1.5,1.5H554c-0.8,0-1.8-1.5-3-4.4l0.8-3.7V91
			c0-1-0.5-1.5-1.5-1.5h-0.7v5.1c0,1-0.5,1.5-1.5,1.5c-0.5-1-1-3.2-1.5-6.6h-0.7c0,1.5-0.5,2.2-1.4,2.2l-1.5-2.9l-1.5,0.7h-0.7v-1.4
			c-4.8,0.5-8.5,0.7-10.9,0.7h-5.8c0,1.9-0.5,2.9-1.5,2.9c0-0.9-0.5-1.4-1.4-1.4c0,1.4-0.5,2.1-1.5,2.1c1,12.2,2,22,2.9,29.1
			c-0.5,0-0.7,0.2-0.7,0.7c4.5,1.9,7.1,2.9,8,2.9h18.2l3.7-0.7v0.7l1.4-0.7h4.4c0.5,0,0.7,0.2,0.7,0.7l1.5-0.7h2.9
			c0.5,0,0.7,0.2,0.7,0.7c5.4-0.5,10-2.4,13.8-5.8h1.5c0.7,0,1.6,1.2,2.9,3.6c-1.7,10.2-3.4,15.3-5.1,15.3l-1.5,0.7l-1.4-0.7
			c-0.5,0-0.8,0.2-0.8,0.7l-3.6-0.7h-5.9c-2.6,0-4.7-0.3-6.5-0.8c-2.7,0.5-4.6,0.8-5.9,0.8c-13.2-1-21.2-1.5-24-1.5l-5.1,0.7v-0.7
			c-0.8,0.4-3.8,0.9-8.8,1.5c-0.8-0.5-1.8-0.8-2.9-0.8c0,1-0.5,1.5-1.4,1.5c-2.9-1.7-4.4-2.9-4.4-3.7v-0.7l1.4-2.2v-2.9h-2.2
			c0.2-1,0.7-1.5,1.5-1.5c0,0.5,0.2,0.8,0.7,0.8c0-1.1,0.3-2.1,0.8-2.9c-0.5-2.7-0.8-4.8-0.8-6.6c0.7,0,2.2-2,4.4-5.9
			c-0.3-2.3-1.7-4.2-4.4-5.8c1-1.6,1.5-2.8,1.5-3.7c-2.4-1.3-3.7-3.5-3.7-6.5l3.7,0.7c0-0.5-1-1.9-2.9-4.4c0.9-1.2,1.4-2.2,1.4-2.9
			l-0.7-1.5c1-1.8,1.5-3.7,1.5-5.8V79l-1.5-2.2c0-0.5,0.2-0.7,0.7-0.7l-0.7-3.7v-6.6l-1.5-2.1c0-0.9,0.5-2.7,1.5-5.2
			c0-0.5-0.2-0.7-0.7-0.7l0.7-3.6v-9.9c-1.5-3.5-3.9-6.9-7.3-10.2v-3.6c0-1,0.7-1.5,2.2-1.5c3.1,1,5.3,1.5,6.6,1.5h9.5
			c1.1,0,2.1-0.3,2.9-0.8c0.8,0.5,1.8,0.8,2.9,0.8h3.7C539.4,29.4,547.6,28.1,550.3,26.8z M505.9,114.8h1.5v2.2h-0.7
			C506.7,116.5,506.5,115.7,505.9,114.8z M508.9,119.2l-0.8,2.9v0.7h0.8l0.7-2.9v-0.7H508.9z M511.8,103.9v1.5h0.7v-1.5H511.8z
			 M513.2,37.8c0,0.5-0.2,1.2-0.7,2.1v0.8h0.7c0-0.5,0.3-1.2,0.8-2.2v-0.7C514,37.8,513.2,37.8,513.2,37.8z M512.5,41.4v0.7h1.5
			v-0.7H512.5z M514,108.9c0.2,1,0.6,1.5,1.4,1.5l0.8-1.5H514z M522.7,124.3v0.7h1.5v-0.7H522.7z M523.4,44.3v1.5h1.4v-1.5H523.4z
			 M575,127.2v1.5h0.8v-1.5H575z M577.2,87.2c1,0.2,1.5,0.7,1.5,1.5c0,1-0.5,1.5-1.5,1.5c-0.9,0-1.4-0.5-1.4-1.5
			C575.9,87.6,576.4,87.2,577.2,87.2z M576.5,80.7c1,0.1,1.5,0.6,1.5,1.4h-1.5V80.7z M578,96.6l0.7,1.5l-1.5,0.7l-0.7-1.4L578,96.6z
			 M579.4,52.3h1.5V53h-1.5V52.3z"/>
	</g>
	<path class="st6" d="M435.6,51.4c0,0,1.2,20.9,20,25.4c0,0-4,27.3,25,41.4"/>
	<line class="st6" x1="455.6" y1="76.9" x2="432.6" y2="94.1"/>
	<path class="st6" d="M469.9,122.9c-19-11.8-22-40.2-22-40.2s-10.2-4.2-15.2-18.9"/>
	<path class="st6" d="M462.3,128.4c-19-11.8-22-40.2-22-40.2S430,84.1,425,69.3"/>
	<path class="st6" d="M532.9,78.9c0,0,4.2-16.8,18.2-18.2c0,0-1-15,14.5-21.8"/>
	<line class="st6" x1="551.1" y1="60.6" x2="519.6" y2="40.6"/>
	<path class="st6" d="M520.1,79.1c0,0,8.3-22.8,22.3-24.3c0,0-1-15,14.5-21.8"/>
	<path class="st6" d="M515.5,69.6c0,0,4.2-18.8,18.2-20.3c0,0-1-11,14.5-17.7"/>
	<path class="st6" d="M516.9,94.1c0,0,9,13,18.5,11.1c0,0,0.8,16.5,33.8,21.5"/>
	<line class="st6" x1="535.4" y1="105.3" x2="522.2" y2="126.8"/>
	<path class="st6" d="M512.3,101.9c0,0,9,13,18.5,11.1c0,0-2.2,11.5,30.8,16.5"/>
</g>
</svg>
